<?xml version="1.0" encoding="UTF-8" standalone="no"?>
<!DOCTYPE svg PUBLIC "-//W3C//DTD SVG 1.1//EN"
 "http://www.w3.org/Graphics/SVG/1.1/DTD/svg11.dtd">
<!-- Generated by graphviz version 2.38.0 (20140413.2041)
 -->
<!-- Title: G Pages: 1 -->
<svg width="423pt" height="294pt"
 viewBox="0.00 0.00 423.09 294.00" xmlns="http://www.w3.org/2000/svg" xmlns:xlink="http://www.w3.org/1999/xlink">
<g id="graph0" class="graph" transform="scale(1 1) rotate(0) translate(4 290)">
<title>G</title>
<polygon fill="white" stroke="none" points="-4,4 -4,-290 419.093,-290 419.093,4 -4,4"/>
<g id="clust1" class="cluster"><title>cluster_Global</title>
<path fill="none" stroke="gray" d="M150.093,-8C150.093,-8 395.093,-8 395.093,-8 401.093,-8 407.093,-14 407.093,-20 407.093,-20 407.093,-266 407.093,-266 407.093,-272 401.093,-278 395.093,-278 395.093,-278 150.093,-278 150.093,-278 144.093,-278 138.093,-272 138.093,-266 138.093,-266 138.093,-20 138.093,-20 138.093,-14 144.093,-8 150.093,-8"/>
<text text-anchor="middle" x="272.593" y="-265.2" font-family="Times New Roman,serif" font-size="11.00" fill="gray">Global</text>
</g>
<g id="clust2" class="cluster"><title>cluster_\core</title>
<path fill="none" stroke="gray" d="M325.093,-142C325.093,-142 387.093,-142 387.093,-142 393.093,-142 399.093,-148 399.093,-154 399.093,-154 399.093,-238 399.093,-238 399.093,-244 393.093,-250 387.093,-250 387.093,-250 325.093,-250 325.093,-250 319.093,-250 313.093,-244 313.093,-238 313.093,-238 313.093,-154 313.093,-154 313.093,-148 319.093,-142 325.093,-142"/>
<text text-anchor="middle" x="356.093" y="-237.2" font-family="Times New Roman,serif" font-size="11.00" fill="gray">core</text>
</g>
<g id="clust3" class="cluster"><title>cluster_\core\controllers</title>
<path fill="none" stroke="gray" d="M333.093,-150C333.093,-150 379.093,-150 379.093,-150 385.093,-150 391.093,-156 391.093,-162 391.093,-162 391.093,-210 391.093,-210 391.093,-216 385.093,-222 379.093,-222 379.093,-222 333.093,-222 333.093,-222 327.093,-222 321.093,-216 321.093,-210 321.093,-210 321.093,-162 321.093,-162 321.093,-156 327.093,-150 333.093,-150"/>
<text text-anchor="middle" x="356.093" y="-209.2" font-family="Times New Roman,serif" font-size="11.00" fill="gray">controllers</text>
</g>
<g id="clust4" class="cluster"><title>cluster_\controllers</title>
<path fill="none" stroke="gray" d="M333.093,-62C333.093,-62 379.093,-62 379.093,-62 385.093,-62 391.093,-68 391.093,-74 391.093,-74 391.093,-122 391.093,-122 391.093,-128 385.093,-134 379.093,-134 379.093,-134 333.093,-134 333.093,-134 327.093,-134 321.093,-128 321.093,-122 321.093,-122 321.093,-74 321.093,-74 321.093,-68 327.093,-62 333.093,-62"/>
<text text-anchor="middle" x="356.093" y="-121.2" font-family="Times New Roman,serif" font-size="11.00" fill="gray">controllers</text>
</g>
<!-- \\core\\controllers\\Main -->
<g id="node1" class="node"><title>\\core\\controllers\\Main</title>
<polygon fill="none" stroke="black" points="383.093,-194 329.093,-194 329.093,-158 383.093,-158 383.093,-194"/>
<text text-anchor="middle" x="356.093" y="-173.2" font-family="Courier,monospace" font-size="11.00">Main</text>
</g>
<!-- \\BaseController -->
<g id="node4" class="node"><title>\\BaseController</title>
<polygon fill="none" stroke="black" points="257.093,-170 146.093,-170 146.093,-134 257.093,-134 257.093,-170"/>
<text text-anchor="middle" x="201.593" y="-149.2" font-family="Courier,monospace" font-size="11.00">BaseController</text>
</g>
<!-- \\core\\controllers\\Main&#45;&gt;\\BaseController -->
<g id="edge1" class="edge"><title>\\core\\controllers\\Main&#45;&gt;\\BaseController</title>
<path fill="none" stroke="black" d="M328.878,-171.874C311.895,-169.202 288.984,-165.596 267.339,-162.19"/>
<polygon fill="none" stroke="black" points="267.602,-158.688 257.179,-160.591 266.513,-165.603 267.602,-158.688"/>
</g>
<!-- \\controllers\\Main -->
<g id="node2" class="node"><title>\\controllers\\Main</title>
<polygon fill="none" stroke="black" points="383.093,-106 329.093,-106 329.093,-70 383.093,-70 383.093,-106"/>
<text text-anchor="middle" x="356.093" y="-85.2" font-family="Courier,monospace" font-size="11.00">Main</text>
</g>
<!-- \\CMF -->
<g id="node3" class="node"><title>\\CMF</title>
<polygon fill="none" stroke="black" points="383.093,-52 329.093,-52 329.093,-16 383.093,-16 383.093,-52"/>
<text text-anchor="middle" x="356.093" y="-31.2" font-family="Courier,monospace" font-size="11.00">CMF</text>
</g>
<!-- \\Prefab -->
<g id="node5" class="node"><title>\\Prefab</title>
<ellipse fill="none" stroke="black" cx="37.0467" cy="-105" rx="37.0935" ry="18"/>
<text text-anchor="middle" x="37.0467" y="-101.3" font-family="Times New Roman,serif" font-size="14.00" fill="gray">\Prefab</text>
</g>
<!-- \\CMF&#45;&gt;\\Prefab -->
<g id="edge2" class="edge"><title>\\CMF&#45;&gt;\\Prefab</title>
<path fill="none" stroke="black" d="M328.878,-39.8706C274.267,-52.1005 147.853,-80.4099 81.1097,-95.3564"/>
<polygon fill="none" stroke="black" points="80.3139,-91.9478 71.3205,-97.5486 81.8437,-98.7786 80.3139,-91.9478"/>
</g>
<!-- \\BaseController&#45;&gt;\\Prefab -->
<g id="edge3" class="edge"><title>\\BaseController&#45;&gt;\\Prefab</title>
<path fill="none" stroke="black" d="M146.016,-136.219C124.239,-129.922 99.5866,-122.794 79.3414,-116.94"/>
<polygon fill="none" stroke="black" points="80.0714,-113.508 69.4927,-114.093 78.127,-120.233 80.0714,-113.508"/>
</g>
</g>
</svg>
